<svg width="52" height="51" viewBox="0 0 52 51" fill="none" xmlns="http://www.w3.org/2000/svg">
<path d="M38.0471 4.3562C40.8107 4.34595 43.2793 6.05071 44.2005 8.6062L45.3479 11.9421C46.8114 13.078 47.6653 14.808 47.6663 16.6384V18.0623C47.6743 20.9829 45.9244 23.6333 43.2034 24.8201C43.2899 25.0366 43.3339 25.2672 43.3333 25.4998V40.3748C43.3333 43.8956 40.4231 46.7498 36.8333 46.7498H15.1663C11.5766 46.7496 8.66629 43.8954 8.66629 40.3748V25.4998C8.66564 25.2672 8.71061 25.0366 8.79715 24.8201C6.07613 23.6333 4.32523 20.9829 4.33328 18.0623V16.6384C4.33427 14.808 5.18818 13.078 6.65164 11.9421L7.80008 8.6062C8.72136 6.05063 11.1897 4.34575 13.9534 4.3562H38.0471ZM32.5003 23.2478C31.086 24.6954 29.1274 25.5092 27.0833 25.4998H24.9163C22.8724 25.5091 20.9144 24.6951 19.5003 23.2478C18.086 24.6954 16.1274 25.5092 14.0833 25.4998H13.0003V40.3748C13.0003 41.5482 13.9698 42.4996 15.1663 42.4998H19.5003V36.1248C19.5004 32.6041 22.4105 29.7498 26.0003 29.7498C29.5899 29.7499 32.5001 32.6042 32.5003 36.1248V42.4998H36.8333C38.0299 42.4998 39.0003 41.5484 39.0003 40.3748V25.4998H37.9163C35.8724 25.5091 33.9144 24.6951 32.5003 23.2478ZM26.0003 33.9998C24.8038 33.9998 23.8334 34.9513 23.8333 36.1248V42.4998H28.1663V36.1248C28.1661 34.9514 27.1967 33.9999 26.0003 33.9998ZM10.4651 14.8748C9.47205 14.8748 8.66649 15.6645 8.66629 16.6384V18.0623C8.66629 19.8225 10.1215 21.2496 11.9163 21.2498H14.0833C15.8782 21.2498 17.3333 19.8227 17.3333 18.0623V14.8748H10.4651ZM21.6663 18.0623C21.6663 19.8225 23.1215 21.2496 24.9163 21.2498H27.0833C28.8782 21.2498 30.3333 19.8227 30.3333 18.0623V14.8748H21.6663V18.0623ZM34.6663 14.8748V18.0623C34.6663 19.8225 36.1215 21.2496 37.9163 21.2498H40.0833C41.8782 21.2498 43.3333 19.8227 43.3333 18.0623V16.6384C43.3331 15.6646 42.5283 14.875 41.5354 14.8748H34.6663ZM38.0471 8.49976H14.0618C13.0908 8.45005 12.2046 9.04116 11.8948 9.94507L11.678 10.6248H40.43L40.2132 9.94507C39.9034 9.04133 39.0179 8.45028 38.0471 8.49976Z" fill="#001F54"/>
</svg>
